<svg xmlns="http://www.w3.org/2000/svg" viewBox="0 0 512 512" width="512" height="512">
  <defs>
    <linearGradient id="bodyGrad" x1="0" y1="0" x2="1" y2="0">
      <stop offset="0%" stop-color="#d4d4d8"/>
      <stop offset="35%" stop-color="#ffffff"/>
      <stop offset="100%" stop-color="#a1a1aa"/>
    </linearGradient>
    <linearGradient id="fo" x1="0" y1="0" x2="0" y2="1">
      <stop offset="0%" stop-color="#f97316"/>
      <stop offset="60%" stop-color="#ef4444"/>
      <stop offset="100%" stop-color="#ef444400"/>
    </linearGradient>
    <linearGradient id="fi" x1="0" y1="0" x2="0" y2="1">
      <stop offset="0%" stop-color="#fde68a"/>
      <stop offset="50%" stop-color="#f97316"/>
      <stop offset="100%" stop-color="#f9731600"/>
    </linearGradient>
  </defs>

  <rect width="512" height="512" rx="108" fill="#000"/>

  <!-- Stars — dense starfield -->
  <circle cx="367" cy="97" r="0.8" fill="#fff" opacity="0.56"/>
  <circle cx="165" cy="154" r="1.0" fill="#fff" opacity="0.56"/>
  <circle cx="386" cy="419" r="2.0" fill="#fff" opacity="0.2"/>
  <circle cx="256" cy="56" r="0.8" fill="#fff" opacity="0.2"/>
  <circle cx="159" cy="298" r="2.0" fill="#fff" opacity="0.16"/>
  <circle cx="141" cy="406" r="2.5" fill="#fff" opacity="0.54"/>
  <circle cx="182" cy="454" r="0.8" fill="#fff" opacity="0.57"/>
  <circle cx="121" cy="397" r="1.5" fill="#fff" opacity="0.34"/>
  <circle cx="119" cy="150" r="3.5" fill="#fff" opacity="0.34"/>
  <circle cx="87" cy="234" r="1.0" fill="#fff" opacity="0.35"/>
  <circle cx="175" cy="453" r="0.8" fill="#fff" opacity="0.55"/>
  <circle cx="233" cy="80" r="2.0" fill="#fff" opacity="0.31"/>
  <circle cx="361" cy="356" r="1.5" fill="#fff" opacity="0.47"/>
  <circle cx="400" cy="75" r="0.8" fill="#fff" opacity="0.51"/>
  <circle cx="435" cy="188" r="1.0" fill="#fff" opacity="0.62"/>
  <circle cx="91" cy="234" r="1.2" fill="#fff" opacity="0.4"/>
  <circle cx="467" cy="226" r="1.0" fill="#fff" opacity="0.35"/>
  <circle cx="147" cy="383" r="1.2" fill="#fff" opacity="0.54"/>
  <circle cx="389" cy="371" r="1.0" fill="#fff" opacity="0.49"/>
  <circle cx="127" cy="313" r="3.0" fill="#fff" opacity="0.28"/>
  <circle cx="178" cy="367" r="3.0" fill="#fff" opacity="0.46"/>
  <circle cx="390" cy="206" r="3.5" fill="#fff" opacity="0.58"/>
  <circle cx="157" cy="460" r="0.8" fill="#fff" opacity="0.59"/>
  <circle cx="73" cy="148" r="2.0" fill="#fff" opacity="0.63"/>
  <circle cx="375" cy="295" r="1.5" fill="#fff" opacity="0.64"/>
  <circle cx="369" cy="274" r="1.0" fill="#fff" opacity="0.3"/>
  <circle cx="166" cy="421" r="2.0" fill="#fff" opacity="0.45"/>
  <circle cx="422" cy="339" r="1.5" fill="#fff" opacity="0.64"/>
  <circle cx="152" cy="110" r="2.0" fill="#fff" opacity="0.42"/>
  <circle cx="426" cy="64" r="1.0" fill="#fff" opacity="0.23"/>
  <circle cx="121" cy="445" r="2.5" fill="#fff" opacity="0.38"/>
  <circle cx="72" cy="237" r="1.5" fill="#fff" opacity="0.48"/>
  <circle cx="168" cy="323" r="0.8" fill="#fff" opacity="0.52"/>
  <circle cx="98" cy="389" r="2.0" fill="#fff" opacity="0.56"/>
  <circle cx="433" cy="368" r="1.5" fill="#fff" opacity="0.21"/>
  <circle cx="272" cy="41" r="3.0" fill="#fff" opacity="0.63"/>
  <circle cx="430" cy="131" r="2.0" fill="#fff" opacity="0.65"/>
  <circle cx="360" cy="192" r="2.5" fill="#fff" opacity="0.43"/>
  <circle cx="141" cy="118" r="1.5" fill="#fff" opacity="0.57"/>
  <circle cx="316" cy="438" r="2.0" fill="#fff" opacity="0.66"/>
  <circle cx="346" cy="205" r="1.8" fill="#fff" opacity="0.16"/>
  <circle cx="453" cy="197" r="1.2" fill="#fff" opacity="0.18"/>
  <circle cx="330" cy="80" r="1.0" fill="#fff" opacity="0.55"/>
  <circle cx="457" cy="75" r="3.5" fill="#fff" opacity="0.44"/>
  <circle cx="104" cy="105" r="2.5" fill="#fff" opacity="0.41"/>
  <circle cx="350" cy="256" r="1.2" fill="#fff" opacity="0.66"/>
  <circle cx="426" cy="413" r="3.0" fill="#fff" opacity="0.26"/>
  <circle cx="383" cy="372" r="1.5" fill="#fff" opacity="0.39"/>
  <circle cx="101" cy="166" r="1.2" fill="#fff" opacity="0.19"/>
  <circle cx="50" cy="341" r="2.0" fill="#fff" opacity="0.28"/>
  <circle cx="152" cy="43" r="1.0" fill="#fff" opacity="0.54"/>
  <circle cx="70" cy="157" r="1.0" fill="#fff" opacity="0.65"/>
  <circle cx="209" cy="76" r="2.0" fill="#fff" opacity="0.28"/>
  <circle cx="382" cy="288" r="1.2" fill="#fff" opacity="0.45"/>
  <circle cx="410" cy="332" r="2.0" fill="#fff" opacity="0.41"/>
  <circle cx="441" cy="282" r="3.5" fill="#fff" opacity="0.37"/>
  <circle cx="88" cy="89" r="2.5" fill="#fff" opacity="0.39"/>
  <circle cx="67" cy="384" r="2.5" fill="#fff" opacity="0.69"/>
  <circle cx="90" cy="71" r="1.5" fill="#fff" opacity="0.55"/>
  <circle cx="449" cy="95" r="1.2" fill="#fff" opacity="0.26"/>
  <circle cx="111" cy="256" r="1.0" fill="#fff" opacity="0.3"/>
  <circle cx="167" cy="78" r="1.8" fill="#fff" opacity="0.59"/>
  <circle cx="65" cy="373" r="2.0" fill="#fff" opacity="0.61"/>
  <circle cx="87" cy="425" r="1.2" fill="#fff" opacity="0.24"/>
  <circle cx="149" cy="245" r="0.8" fill="#fff" opacity="0.24"/>
  <circle cx="41" cy="239" r="1.2" fill="#fff" opacity="0.66"/>
  <circle cx="441" cy="272" r="1.2" fill="#fff" opacity="0.38"/>
  <circle cx="414" cy="441" r="2.0" fill="#fff" opacity="0.51"/>
  <circle cx="137" cy="191" r="1.2" fill="#fff" opacity="0.68"/>
  <circle cx="336" cy="416" r="2.0" fill="#fff" opacity="0.18"/>
  <circle cx="200" cy="69" r="0.8" fill="#fff" opacity="0.47"/>
  <circle cx="120" cy="69" r="2.0" fill="#fff" opacity="0.19"/>
  <circle cx="135" cy="75" r="2.0" fill="#fff" opacity="0.19"/>
  <circle cx="160" cy="246" r="1.0" fill="#fff" opacity="0.67"/>
  <circle cx="60" cy="357" r="1.0" fill="#fff" opacity="0.38"/>
  <circle cx="382" cy="406" r="1.5" fill="#fff" opacity="0.28"/>
  <circle cx="383" cy="370" r="1.2" fill="#fff" opacity="0.4"/>
  <circle cx="424" cy="77" r="0.8" fill="#fff" opacity="0.4"/>
  <circle cx="77" cy="315" r="1.2" fill="#fff" opacity="0.43"/>
  <circle cx="107" cy="218" r="1.0" fill="#fff" opacity="0.63"/>
  <circle cx="120" cy="264" r="2.0" fill="#fff" opacity="0.54"/>
  <circle cx="353" cy="453" r="2.5" fill="#fff" opacity="0.44"/>
  <circle cx="381" cy="458" r="2.0" fill="#fff" opacity="0.31"/>
  <circle cx="379" cy="93" r="1.0" fill="#fff" opacity="0.3"/>
  <circle cx="94" cy="420" r="2.0" fill="#fff" opacity="0.24"/>
  <circle cx="147" cy="407" r="1.5" fill="#fff" opacity="0.26"/>
  <circle cx="364" cy="175" r="2.0" fill="#fff" opacity="0.42"/>
  <circle cx="66" cy="87" r="2.5" fill="#fff" opacity="0.38"/>

  <!-- Flame — scaled down, centered -->
  <ellipse cx="256" cy="406" rx="26" ry="32" fill="#f97316" opacity=".1"/>
  <path d="M238 368 Q233 394 248 422 Q254 434 256 438 Q258 434 264 422 Q279 394 274 368" fill="url(#fo)" opacity=".9"/>
  <path d="M246 368 Q243 390 252 414 Q255 420 256 422 Q257 420 260 414 Q269 390 266 368" fill="url(#fi)" opacity=".95"/>

  <!-- Fins — scaled, within safe zone -->
  <path d="M196 298 L170 358 L210 334 Z" fill="#d4d4d8"/>
  <path d="M316 298 L342 358 L302 334 Z" fill="#d4d4d8"/>

  <!-- Zero body — scaled to ~75% of previous, well within safe circle -->
  <ellipse cx="256" cy="222" rx="74" ry="120" fill="url(#bodyGrad)"/>
  <ellipse cx="256" cy="222" rx="50" ry="90" fill="#000"/>

  <!-- Nozzle -->
  <rect x="236" y="337" width="40" height="14" rx="4" fill="#a1a1aa"/>
  <rect x="243" y="348" width="26" height="14" rx="3" fill="#71717a"/>
</svg>