<svg xmlns="http://www.w3.org/2000/svg" viewBox="0 0 512 512" width="512" height="512">
  <defs>
    <linearGradient id="bodyGrad" x1="0" y1="0" x2="1" y2="0">
      <stop offset="0%" stop-color="#d4d4d8"/>
      <stop offset="35%" stop-color="#ffffff"/>
      <stop offset="100%" stop-color="#a1a1aa"/>
    </linearGradient>
    <linearGradient id="fo" x1="0" y1="0" x2="0" y2="1">
      <stop offset="0%" stop-color="#f97316"/>
      <stop offset="60%" stop-color="#ef4444"/>
      <stop offset="100%" stop-color="#ef444400"/>
    </linearGradient>
    <linearGradient id="fi" x1="0" y1="0" x2="0" y2="1">
      <stop offset="0%" stop-color="#fde68a"/>
      <stop offset="50%" stop-color="#f97316"/>
      <stop offset="100%" stop-color="#f9731600"/>
    </linearGradient>
  </defs>

  <rect width="512" height="512" rx="108" fill="#000"/>

  <!-- Stars -->
  <circle cx="92" cy="100" r="2" fill="#fff" opacity=".6"/>
  <circle cx="420" cy="88" r="2.5" fill="#fff" opacity=".55"/>
  <circle cx="78" cy="305" r="1.5" fill="#fff" opacity=".4"/>
  <circle cx="430" cy="335" r="2" fill="#fff" opacity=".5"/>
  <circle cx="392" cy="158" r="1.5" fill="#fff" opacity=".35"/>
  <circle cx="122" cy="198" r="1.5" fill="#fff" opacity=".3"/>
  <circle cx="66" cy="415" r="1.8" fill="#fff" opacity=".35"/>
  <circle cx="445" cy="438" r="1.5" fill="#fff" opacity=".3"/>
  <circle cx="355" cy="72" r="1.2" fill="#fff" opacity=".25"/>
  <circle cx="155" cy="72" r="1.8" fill="#fff" opacity=".4"/>
  <circle cx="105" cy="438" r="1.2" fill="#fff" opacity=".3"/>
  <circle cx="405" cy="245" r="1.5" fill="#fff" opacity=".25"/>

  <!-- Flame -->
  <ellipse cx="256" cy="448" rx="36" ry="42" fill="#f97316" opacity=".1"/>
  <path d="M222 400 Q214 438 238 476 Q250 494 256 500 Q262 494 274 476 Q298 438 290 400" fill="url(#fo)" opacity=".9"/>
  <path d="M238 400 Q234 432 250 466 Q254 474 256 478 Q258 474 262 466 Q278 432 274 400" fill="url(#fi)" opacity=".95"/>

  <!-- Fins -->
  <path d="M174 326 L138 404 L194 370 Z" fill="#d4d4d8"/>
  <path d="M338 326 L374 404 L318 370 Z" fill="#d4d4d8"/>

  <!-- Zero body: BIGGER, thinner walls -->
  <ellipse cx="256" cy="215" rx="100" ry="160" fill="url(#bodyGrad)"/>
  <ellipse cx="256" cy="215" rx="66" ry="120" fill="#000"/>

  <!-- Nozzle -->
  <rect x="226" y="370" width="60" height="16" rx="4" fill="#a1a1aa"/>
  <rect x="236" y="383" width="40" height="16" rx="4" fill="#71717a"/>
</svg>