<svg xmlns="http://www.w3.org/2000/svg" viewBox="0 0 512 512" width="512" height="512">
  <!-- Starfield: uniformly-random distribution, same star design as logo.svg, seamlessly tiled -->
  <circle cx="183.75" cy="54.22" r="2.5" fill="#fff" opacity="0.65"/>
  <circle cx="52.01" cy="154.11" r="0.8" fill="#fff" opacity="0.4"/>
  <circle cx="221.76" cy="280.31" r="1.8" fill="#fff" opacity="0.32"/>
  <circle cx="459.97" cy="173.82" r="0.8" fill="#fff" opacity="0.28"/>
  <circle cx="134.01" cy="435.13" r="1" fill="#fff" opacity="0.51"/>
  <circle cx="490" cy="388.53" r="3" fill="#fff" opacity="0.64"/>
  <circle cx="455.47" cy="271.22" r="1.2" fill="#fff" opacity="0.32"/>
  <circle cx="502.51" cy="334.42" r="3" fill="#fff" opacity="0.55"/>
  <circle cx="251.93" cy="77.5" r="2.5" fill="#fff" opacity="0.18"/>
  <circle cx="181.5" cy="420.42" r="3.5" fill="#fff" opacity="0.59"/>
  <circle cx="36.86" cy="199.19" r="1.2" fill="#fff" opacity="0.49"/>
  <circle cx="22.41" cy="484.89" r="1.5" fill="#fff" opacity="0.23"/>
  <circle cx="310.4" cy="345.41" r="2" fill="#fff" opacity="0.25"/>
  <circle cx="421.73" cy="261.63" r="1" fill="#fff" opacity="0.41"/>
  <circle cx="509.73" cy="124.04" r="1" fill="#fff" opacity="0.68"/>
  <circle cx="-2.27" cy="124.04" r="1" fill="#fff" opacity="0.68"/>
  <circle cx="429.87" cy="499.16" r="1" fill="#fff" opacity="0.4"/>
  <circle cx="64.89" cy="300.59" r="3.5" fill="#fff" opacity="0.24"/>
  <circle cx="108.18" cy="107.15" r="3.5" fill="#fff" opacity="0.42"/>
  <circle cx="426.65" cy="38.11" r="1" fill="#fff" opacity="0.27"/>
  <circle cx="209.62" cy="56.58" r="1.5" fill="#fff" opacity="0.37"/>
  <circle cx="246.91" cy="180.59" r="2" fill="#fff" opacity="0.15"/>
  <circle cx="49.71" cy="331.8" r="2.5" fill="#fff" opacity="0.63"/>
  <circle cx="245.81" cy="128.48" r="1.5" fill="#fff" opacity="0.51"/>
  <circle cx="305.39" cy="466.06" r="2.5" fill="#fff" opacity="0.58"/>
  <circle cx="114.96" cy="204.06" r="1.2" fill="#fff" opacity="0.59"/>
  <circle cx="402.57" cy="172.07" r="1.2" fill="#fff" opacity="0.54"/>
  <circle cx="275.4" cy="424.99" r="1.8" fill="#fff" opacity="0.41"/>
  <circle cx="51.72" cy="296.81" r="0.8" fill="#fff" opacity="0.35"/>
  <circle cx="8.02" cy="17.79" r="1.8" fill="#fff" opacity="0.64"/>
  <circle cx="266.76" cy="466.45" r="1" fill="#fff" opacity="0.46"/>
  <circle cx="356.42" cy="140.87" r="2" fill="#fff" opacity="0.22"/>
  <circle cx="324.07" cy="151.46" r="0.8" fill="#fff" opacity="0.38"/>
  <circle cx="228.58" cy="364.07" r="0.8" fill="#fff" opacity="0.36"/>
  <circle cx="395.62" cy="1.89" r="2" fill="#fff" opacity="0.66"/>
  <circle cx="395.62" cy="513.89" r="2" fill="#fff" opacity="0.66"/>
  <circle cx="62.43" cy="400.6" r="1.2" fill="#fff" opacity="0.57"/>
  <circle cx="416.87" cy="72.31" r="3.5" fill="#fff" opacity="0.31"/>
  <circle cx="207.86" cy="379.96" r="1" fill="#fff" opacity="0.65"/>
  <circle cx="307.67" cy="108.62" r="0.8" fill="#fff" opacity="0.28"/>
  <circle cx="280.48" cy="197.38" r="1.5" fill="#fff" opacity="0.48"/>
  <circle cx="449.12" cy="415.6" r="1.2" fill="#fff" opacity="0.34"/>
  <circle cx="406.35" cy="305.33" r="1.8" fill="#fff" opacity="0.53"/>
  <circle cx="430.71" cy="442.43" r="1.2" fill="#fff" opacity="0.15"/>
  <circle cx="446.71" cy="191.76" r="2" fill="#fff" opacity="0.46"/>
  <circle cx="235.26" cy="14.23" r="1" fill="#fff" opacity="0.61"/>
  <circle cx="407.72" cy="49.7" r="1" fill="#fff" opacity="0.62"/>
  <circle cx="499.18" cy="364.12" r="2" fill="#fff" opacity="0.24"/>
  <circle cx="242.07" cy="32.28" r="2.5" fill="#fff" opacity="0.48"/>
  <circle cx="51.17" cy="78.46" r="3.5" fill="#fff" opacity="0.51"/>
  <circle cx="31.76" cy="243.51" r="1.2" fill="#fff" opacity="0.58"/>
  <circle cx="500.8" cy="143.81" r="2" fill="#fff" opacity="0.43"/>
  <circle cx="42.76" cy="237.1" r="1.2" fill="#fff" opacity="0.23"/>
  <circle cx="295.53" cy="100.18" r="3" fill="#fff" opacity="0.23"/>
  <circle cx="297.24" cy="79.95" r="1.5" fill="#fff" opacity="0.27"/>
  <circle cx="140.28" cy="55.87" r="1.8" fill="#fff" opacity="0.4"/>
  <circle cx="451.74" cy="15.62" r="1.5" fill="#fff" opacity="0.48"/>
  <circle cx="318.27" cy="166.17" r="1.8" fill="#fff" opacity="0.2"/>
  <circle cx="232.92" cy="338.65" r="2" fill="#fff" opacity="0.51"/>
  <circle cx="299.18" cy="380.83" r="3.5" fill="#fff" opacity="0.34"/>
  <circle cx="399.95" cy="21.53" r="1" fill="#fff" opacity="0.46"/>
  <circle cx="286.4" cy="489.18" r="1.8" fill="#fff" opacity="0.61"/>
  <circle cx="457.71" cy="344.54" r="2.5" fill="#fff" opacity="0.66"/>
  <circle cx="58.54" cy="438.73" r="3" fill="#fff" opacity="0.16"/>
  <circle cx="368.09" cy="413.24" r="1.2" fill="#fff" opacity="0.4"/>
  <circle cx="213.7" cy="187.5" r="2" fill="#fff" opacity="0.66"/>
  <circle cx="139.67" cy="159.29" r="2.5" fill="#fff" opacity="0.26"/>
  <circle cx="140.45" cy="185.97" r="1.5" fill="#fff" opacity="0.52"/>
  <circle cx="454.3" cy="248.55" r="1.8" fill="#fff" opacity="0.54"/>
  <circle cx="506.26" cy="365.99" r="1.2" fill="#fff" opacity="0.21"/>
  <circle cx="471.38" cy="263.67" r="1.2" fill="#fff" opacity="0.2"/>
  <circle cx="33.85" cy="159.49" r="2.5" fill="#fff" opacity="0.22"/>
  <circle cx="395.17" cy="465.68" r="2.5" fill="#fff" opacity="0.6"/>
  <circle cx="85.79" cy="366.2" r="1.2" fill="#fff" opacity="0.18"/>
  <circle cx="143.63" cy="92.76" r="2.5" fill="#fff" opacity="0.66"/>
  <circle cx="203.16" cy="451.78" r="1.5" fill="#fff" opacity="0.22"/>
  <circle cx="359.63" cy="437.69" r="1.2" fill="#fff" opacity="0.69"/>
  <circle cx="98.96" cy="264.01" r="3" fill="#fff" opacity="0.4"/>
  <circle cx="98.23" cy="411.36" r="1.2" fill="#fff" opacity="0.51"/>
  <circle cx="346.62" cy="362.22" r="0.8" fill="#fff" opacity="0.64"/>
  <circle cx="400.94" cy="63.47" r="1" fill="#fff" opacity="0.59"/>
  <circle cx="220.65" cy="105.32" r="2" fill="#fff" opacity="0.3"/>
  <circle cx="66.77" cy="54.43" r="1.8" fill="#fff" opacity="0.66"/>
  <circle cx="126.99" cy="187.72" r="1.8" fill="#fff" opacity="0.26"/>
  <circle cx="167.01" cy="474.35" r="3.5" fill="#fff" opacity="0.27"/>
  <circle cx="112.88" cy="400.79" r="3" fill="#fff" opacity="0.25"/>
  <circle cx="437.71" cy="316.15" r="3" fill="#fff" opacity="0.51"/>
  <circle cx="180.74" cy="50.99" r="2" fill="#fff" opacity="0.18"/>
  <circle cx="7.47" cy="460.63" r="2.5" fill="#fff" opacity="0.47"/>
  <circle cx="410.65" cy="436.63" r="1.2" fill="#fff" opacity="0.61"/>
  <circle cx="98.34" cy="472.94" r="1.2" fill="#fff" opacity="0.22"/>
  <circle cx="165.98" cy="328.77" r="1" fill="#fff" opacity="0.25"/>
  <circle cx="231.64" cy="216.32" r="2.5" fill="#fff" opacity="0.28"/>
  <circle cx="421.78" cy="452.28" r="3.5" fill="#fff" opacity="0.23"/>
  <circle cx="278.22" cy="206.06" r="2" fill="#fff" opacity="0.35"/>
  <circle cx="47.97" cy="210.85" r="1.8" fill="#fff" opacity="0.55"/>
  <circle cx="321.73" cy="304.85" r="3" fill="#fff" opacity="0.16"/>
  <circle cx="428.57" cy="224.09" r="2" fill="#fff" opacity="0.48"/>
  <circle cx="37.08" cy="226.05" r="3" fill="#fff" opacity="0.15"/>
  <circle cx="350.49" cy="148.26" r="1.5" fill="#fff" opacity="0.2"/>
  <circle cx="36.13" cy="434.78" r="3.5" fill="#fff" opacity="0.55"/>
  <circle cx="487.36" cy="5.93" r="1.5" fill="#fff" opacity="0.31"/>
  <circle cx="38.47" cy="494.3" r="1.2" fill="#fff" opacity="0.18"/>
  <circle cx="150.89" cy="421.42" r="3" fill="#fff" opacity="0.2"/>
  <circle cx="486.63" cy="70.73" r="3.5" fill="#fff" opacity="0.25"/>
  <circle cx="276.69" cy="165.77" r="1.5" fill="#fff" opacity="0.42"/>
  <circle cx="349.73" cy="312.51" r="1.2" fill="#fff" opacity="0.2"/>
  <circle cx="6.63" cy="89.34" r="2.5" fill="#fff" opacity="0.58"/>
  <circle cx="276.11" cy="415.37" r="3.5" fill="#fff" opacity="0.55"/>
  <circle cx="190.54" cy="398.5" r="3" fill="#fff" opacity="0.6"/>
  <circle cx="462.44" cy="466.1" r="3.5" fill="#fff" opacity="0.21"/>
  <circle cx="19.78" cy="361.6" r="0.8" fill="#fff" opacity="0.55"/>
  <circle cx="401.68" cy="224.4" r="1.5" fill="#fff" opacity="0.68"/>
  <circle cx="247.38" cy="195.68" r="1.5" fill="#fff" opacity="0.26"/>
  <circle cx="177.07" cy="422.05" r="1.2" fill="#fff" opacity="0.26"/>
  <circle cx="218.44" cy="458.07" r="2" fill="#fff" opacity="0.29"/>
  <circle cx="225.76" cy="31.24" r="0.8" fill="#fff" opacity="0.63"/>
  <circle cx="486.25" cy="310.2" r="3.5" fill="#fff" opacity="0.28"/>
  <circle cx="200.07" cy="126.87" r="1" fill="#fff" opacity="0.48"/>
  <circle cx="252.85" cy="152.99" r="3" fill="#fff" opacity="0.33"/>
  <circle cx="280.55" cy="482.28" r="2.5" fill="#fff" opacity="0.18"/>
  <circle cx="459.1" cy="66.66" r="1.2" fill="#fff" opacity="0.53"/>
  <circle cx="115.19" cy="88.3" r="0.8" fill="#fff" opacity="0.46"/>
  <circle cx="395.62" cy="394.06" r="1.5" fill="#fff" opacity="0.32"/>
  <circle cx="154.01" cy="295.24" r="3.5" fill="#fff" opacity="0.23"/>
  <circle cx="140.25" cy="316.26" r="3.5" fill="#fff" opacity="0.2"/>
  <circle cx="382.02" cy="410.6" r="2.5" fill="#fff" opacity="0.55"/>
  <circle cx="266.32" cy="149.02" r="3.5" fill="#fff" opacity="0.39"/>
  <circle cx="416.3" cy="451.6" r="0.8" fill="#fff" opacity="0.33"/>
  <circle cx="121.23" cy="410.57" r="1.8" fill="#fff" opacity="0.22"/>
  <circle cx="380.76" cy="439.6" r="2.5" fill="#fff" opacity="0.27"/>
  <circle cx="16.19" cy="202.69" r="2.5" fill="#fff" opacity="0.59"/>
  <circle cx="479.98" cy="459.22" r="1.5" fill="#fff" opacity="0.58"/>
  <circle cx="288.55" cy="504.93" r="2.5" fill="#fff" opacity="0.59"/>
  <circle cx="487.94" cy="402.98" r="1.8" fill="#fff" opacity="0.47"/>
  <circle cx="23.24" cy="387.5" r="2.5" fill="#fff" opacity="0.45"/>
  <circle cx="137.42" cy="366.19" r="1.5" fill="#fff" opacity="0.16"/>
  <circle cx="355.43" cy="239.15" r="1.5" fill="#fff" opacity="0.41"/>
  <circle cx="55.98" cy="313.57" r="1.8" fill="#fff" opacity="0.34"/>
  <circle cx="119.64" cy="462.54" r="1.5" fill="#fff" opacity="0.44"/>
  <circle cx="254.86" cy="211.55" r="1.5" fill="#fff" opacity="0.37"/>
  <circle cx="151.46" cy="134.67" r="1.2" fill="#fff" opacity="0.3"/>
</svg>
